<svg xmlns="http://www.w3.org/2000/svg" viewBox="0 0 64 64" role="img" aria-label="青筠云档">
  <rect width="64" height="64" rx="14" fill="#047857"/>
  <path d="M13 20.5c0-2.5 2-4.5 4.5-4.5h13.1c1.2 0 2.4.5 3.2 1.4l3.8 4.2c.9 1 2.1 1.5 3.4 1.5h5.5c2.5 0 4.5 2 4.5 4.5v15.9c0 2.5-2 4.5-4.5 4.5h-29c-2.5 0-4.5-2-4.5-4.5z" fill="#ecfdf5"/>
  <path d="M20 38.5 45.5 27c1.1-.5 2.2.6 1.6 1.7l-5.3 10.8c-.3.6-1 .8-1.6.5l-7.4-3.7-5.3 5.1c-.8.8-2.1.2-2.1-.9v-4.1l-5.3-2.7c-1-.5-1-2 .1-2.5z" fill="#10b981"/>
  <path d="m28.8 36.2 12.5-6.1-10.2 8.2z" fill="#6ee7b7"/>
</svg>
